<?xml version="1.0" standalone="no"?>
<!DOCTYPE svg PUBLIC "-//W3C//DTD SVG 1.1//EN" "http://www.w3.org/Graphics/SVG/1.1/DTD/svg11.dtd" >
<svg xmlns="http://www.w3.org/2000/svg">
<metadata>Generated by IcoMoon</metadata>
<defs>
<font id="icomoon" horiz-adv-x="1024">
<font-face units-per-em="1024" ascent="960" descent="-64" />
<missing-glyph horiz-adv-x="1024" />
<glyph unicode="&#x20;" horiz-adv-x="512" d="" />
<glyph unicode="&#xe900;" glyph-name="arrow-down" horiz-adv-x="1661" d="M193.958 960l636.541-636.541 636.541 636.541 193.73-193.73-830.27-830.27-830.27 830.27 193.73 193.73z" />
<glyph unicode="&#xe901;" glyph-name="play" d="M409.6 217.6l307.2 230.4-307.2 230.4v-460.8zM512 960c-281.6 0-512-230.4-512-512s230.4-512 512-512c281.6 0 512 230.4 512 512s-230.4 512-512 512v0zM512 38.4c-225.28 0-409.6 184.32-409.6 409.6s184.32 409.6 409.6 409.6c225.28 0 409.6-184.32 409.6-409.6s-184.32-409.6-409.6-409.6v0z" />
<glyph unicode="&#xe902;" glyph-name="clock" d="M512 960c-281.6 0-512-230.4-512-512s230.4-512 512-512c281.6 0 512 230.4 512 512s-230.4 512-512 512v0zM512 38.4c-225.28 0-409.6 184.32-409.6 409.6s184.32 409.6 409.6 409.6c225.28 0 409.6-184.32 409.6-409.6s-184.32-409.6-409.6-409.6zM537.6 704h-76.8v-307.2l266.24-163.84 40.96 66.56-230.4 138.24v266.24z" />
<glyph unicode="&#xe903;" glyph-name="bell" d="M490.667-64h42.667c51.2 0 93.867 36.267 104.533 85.333h386.133v140.8l-128 64v264.533c0 174.933-117.333 322.133-277.333 369.067-4.267 55.467-49.067 100.267-106.667 100.267s-102.4-44.8-106.667-100.267c-160-46.933-277.333-194.133-277.333-369.067v-264.533l-128-64v-140.8h386.133c10.667-49.067 53.333-85.333 104.533-85.333zM533.333-21.333h-42.667c-27.733 0-51.2 17.067-59.733 42.667h164.267c-10.667-25.6-34.133-42.667-61.867-42.667zM512 917.333c29.867 0 55.467-21.333 61.867-49.067-19.2 4.267-40.533 6.4-61.867 6.4s-42.667-2.133-61.867-6.4c6.4 27.733 32 49.067 61.867 49.067zM42.667 136.533l128 64v290.133c0 187.733 153.6 341.333 341.333 341.333s341.333-153.6 341.333-341.333v-290.133l128-64v-72.533h-938.667v72.533z" />
<glyph unicode="&#xe904;" glyph-name="tag" d="M427.189 959.995l571.616-571.616c33.455-33.455 33.625-87.619 0.322-120.921l-306.589-306.589c-33.253-33.253-87.441-33.158-120.921 0.322l-571.616 571.616v341.766c0 47.511 38.244 85.422 85.422 85.422h341.766zM405.829 917.277h-320.031c-23.792 0-43.079-19.522-43.079-43.079v-320.031l559.61-562.656c16.598-16.687 43.509-16.667 59.996-0.068l306.020 308.109c16.538 16.651 16.456 43.525-0.251 60.093l-562.265 557.631zM234.954 618.245v0c-58.983 0-106.797 47.814-106.797 106.797s47.814 106.797 106.797 106.797c58.983 0 106.797-47.814 106.797-106.797s-47.814-106.797-106.797-106.797zM234.954 660.964c35.39 0 64.078 28.688 64.078 64.078s-28.688 64.078-64.078 64.078c-35.39 0-64.078-28.688-64.078-64.078s28.688-64.078 64.078-64.078v0z" />
<glyph unicode="&#xe905;" glyph-name="heart" horiz-adv-x="1088" d="M543.323-63.281l-17.331 17.331c0 0-438.223 438.223-443.175 443.175-116.365 136.171-108.936 339.189 14.855 462.981 64.372 64.372 148.55 99.034 240.156 99.034 74.275 0 146.075-24.758 205.495-69.324 133.695 101.509 321.858 91.605 445.65-29.71v0c64.372-64.372 99.034-148.55 99.034-237.68 0-84.178-29.71-160.929-81.703-222.825v0c-9.904-9.904-66.847-66.847-445.65-445.65l-17.331-17.331zM337.829 909.723c-79.226 0-151.026-29.71-205.495-84.178-106.461-106.461-111.413-279.769-12.379-393.658 2.475-4.952 341.665-344.141 423.368-425.844 168.356 168.356 406.037 406.037 423.368 425.844v2.475c47.041 51.993 71.799 118.84 71.799 188.164 0 76.751-29.71 148.55-84.178 203.018-108.936 106.461-279.769 113.888-393.658 14.855l-17.331-14.855-17.331 14.855c-51.993 44.565-118.84 69.324-188.164 69.324z" />
<glyph unicode="&#xe906;" glyph-name="calendar" d="M750.932 413.867h-68.267v-136.533h68.267v136.533zM614.399 413.867h-68.267v-136.533h68.267v136.533zM750.932 618.667h-68.267v-136.533h68.267v136.533zM887.466 413.867h-68.267v-136.533h68.267v136.533zM614.399 209.067h-68.267v-136.533h68.267v136.533zM819.199 960h-68.267v-136.533h68.267v136.533zM273.066 960h-68.267v-136.533h68.267v136.533zM887.466 618.667h-68.267v-136.533h68.267v136.533zM614.399 618.667h-68.267v-136.533h68.267v136.533zM341.332 209.067h-68.267v-136.533h68.267v136.533zM204.799 413.867h-68.267v-136.533h68.267v136.533zM341.332 413.867h-68.267v-136.533h68.267v136.533zM887.466 891.733v-136.533h-204.8v136.533h-341.333v-136.533h-204.8v136.533h-136.533v-955.733h1024v955.733h-136.533zM955.732 4.267h-887.467v682.667h887.467v-682.667zM204.799 209.067h-68.267v-136.533h68.267v136.533zM477.866 618.667h-68.267v-136.533h68.267v136.533zM477.866 209.067h-68.267v-136.533h68.267v136.533zM341.332 618.667h-68.267v-136.533h68.267v136.533zM477.866 413.867h-68.267v-136.533h68.267v136.533zM750.932 209.067h-68.267v-136.533h68.267v136.533z" />
<glyph unicode="&#xe907;" glyph-name="mail" horiz-adv-x="1536" d="M1408-64h-1280c-70.4 0-128 57.6-128 128v768c0 70.4 57.6 128 128 128h1280c70.4 0 128-57.6 128-128v-768c0-70.4-57.6-128-128-128zM128 896c-35.2 0-64-28.8-64-64v-768c0-35.2 28.8-64 64-64h1280c35.2 0 64 28.8 64 64v768c0 35.2-28.8 64-64 64h-1280zM768 281.6l-560 364.8c-16 9.6-19.2 28.8-9.6 41.6s28.8 19.2 44.8 9.6l524.8-339.2 528 339.2c16 9.6 35.2 6.4 44.8-9.6s6.4-35.2-9.6-44.8l-563.2-361.6zM192 128c-9.6 0-19.2 6.4-25.6 12.8-9.6 16-6.4 35.2 9.6 44.8l288 192c16 9.6 35.2 6.4 44.8-9.6s6.4-35.2-9.6-44.8l-288-192c-6.4 0-12.8-3.2-19.2-3.2zM1344 128c-6.4 0-12.8 3.2-19.2 6.4l-288 192c-16 9.6-19.2 28.8-9.6 44.8s28.8 19.2 44.8 9.6l288-192c16-9.6 19.2-28.8 9.6-44.8-6.4-9.6-16-16-25.6-16z" />
<glyph unicode="&#xe908;" glyph-name="eye" horiz-adv-x="1755" d="M1750.893 447.086c-207.037 238.573-493.141 512.793-873.395 512.793-153.564 0-294.331-43.419-442.867-136.197-125.228-78.611-253.654-189.213-430.070-371.113l-4.57-4.57 30.622-31.536c251.827-257.768 469.376-480.344 846.887-480.344 166.818 0 328.609 54.387 494.513 166.361 141.224 95.521 261.425 216.635 357.859 314.44l25.137 25.137-4.113 5.028zM877.498 886.754c151.278 0 296.616-43.419 444.239-139.853 109.231-71.297 216.635-167.732 336.835-302.1-175.045-176.872-437.84-435.555-781.073-435.555-156.306 0-293.417 38.391-430.528 128.884-125.684 82.724-239.030 197.896-348.261 309.87 270.107 272.85 495.426 438.754 778.788 438.754zM877.498 82.372c201.553 0 365.628 164.075 365.628 365.628s-164.075 365.628-365.628 365.628-365.628-164.075-365.628-365.628 164.075-365.628 365.628-365.628zM877.498 739.132c160.876 0 292.502-130.712 292.502-291.132s-131.626-291.132-292.502-291.132-292.045 130.712-292.045 291.132 131.169 291.132 292.045 291.132zM1023.75 448v0c0-79.981-65.814-146.252-145.337-146.252s-147.165 69.47-147.165 149.451 72.212 143.052 146.252 143.052v73.126c-121.115 0-218.92-98.72-218.92-220.291s98.263-219.834 218.92-219.834 219.377 98.72 219.377 219.834v0.914h-73.126z" />
<glyph unicode="&#xe909;" glyph-name="camera" horiz-adv-x="1214" d="M606.999 694.52c-166.874 0-303.407-136.533-303.407-303.407s136.533-303.407 303.407-303.407c166.874 0 303.407 136.533 303.407 303.407s-136.533 303.407-303.407 303.407zM781.458 243.201c-83.437-94.815-223.763-106.193-322.37-22.756-94.815 83.437-106.193 223.763-22.756 322.37 83.437 94.815 223.763 106.193 322.37 22.756 91.022-83.437 102.4-227.556 22.756-322.37zM606.999 542.816c-83.437 0-151.704-68.267-151.704-151.704v0c0-11.378 7.585-18.963 18.963-18.963s18.963 7.585 18.963 18.963v0c0 64.474 49.304 113.778 113.778 113.778 11.378 0 18.963 7.585 18.963 18.963s-7.585 18.963-18.963 18.963zM1118.999 732.445l-163.081 26.548-53.096 128.948c-18.963 45.511-60.681 72.059-106.193 72.059h-379.259c-45.511 0-87.23-26.548-106.193-72.059l-53.096-128.948-163.081-26.548c-53.096-11.378-94.815-56.889-94.815-113.778v-568.889c0-64.474 49.304-113.778 113.778-113.778h986.074c64.474 0 113.778 49.304 113.778 113.778v568.889c0 56.889-41.719 102.4-94.815 113.778zM1137.962 49.779c0-22.756-15.17-37.926-37.926-37.926h-986.074c-22.756 0-37.926 15.17-37.926 37.926v568.889c0 18.963 15.17 34.133 30.341 37.926l204.8 34.133 68.267 170.667c7.585 15.17 22.756 22.756 37.926 22.756h379.259c15.17 0 30.341-7.585 34.133-22.756l68.267-170.667 208.593-34.133c15.17-3.793 30.341-18.963 30.341-37.926v-568.889z" />
<glyph unicode="&#xe90a;" glyph-name="search" d="M672.042 227.088c-69.781-54.619-158.802-87.586-255.522-87.586-230.037 0-416.519 186.482-416.519 416.519s186.482 416.519 416.519 416.519c230.037 0 416.519-186.482 416.519-416.519 0-96.72-32.967-185.74-88.275-256.437l0.689 0.915 278.547-277.506-73.932-73.932-277.506 278.027zM416.924 243.748c172.528 0 312.39 139.861 312.39 312.39s-139.861 312.39-312.39 312.39v0c-172.528 0-312.39-139.861-312.39-312.39s139.861-312.39 312.39-312.39v0z" />
<glyph unicode="&#xe90b;" glyph-name="orientation" horiz-adv-x="1117" d="M282.042 85.253h-66.125c-15.114 0-28.339-13.225-28.339-28.339s13.225-28.339 28.339-28.339h66.125v-64.236c0-15.114 13.225-28.339 28.339-28.339s28.339 13.225 28.339 28.339v64.236h66.125c15.114 0 28.339 13.225 28.339 28.339s-13.225 28.339-28.339 28.339h-66.125v136.030c158.701 15.114 283.396 147.365 283.396 309.846 0 52.9-13.225 105.801-39.675 151.144-7.557 13.225-24.561 18.893-37.786 11.336s-18.893-24.561-11.336-37.786c20.782-37.786 32.118-81.24 32.118-124.694 0-139.808-115.247-255.056-255.056-255.056s-255.056 115.247-255.056 255.056 115.247 255.056 255.056 255.056c34.007 0 68.015-7.557 100.133-20.782 15.114-5.668 30.229 0 37.786 15.114 5.668 15.114 0 30.229-15.114 37.786-37.786 17.004-79.351 24.561-120.915 24.561-171.927 0-311.735-139.808-311.735-311.735 0-162.48 124.694-296.621 283.396-309.846v-136.030h-1.889zM1115.225 942.996c-3.779 7.557-7.557 13.225-15.114 15.114v0c-3.779 1.889-7.557 1.889-9.446 1.889h-136.030c-15.114 0-28.339-13.225-28.339-28.339s13.225-28.339 28.339-28.339h64.236l-132.251-132.251c-56.679 47.232-126.583 71.793-200.267 71.793-83.129 0-162.48-32.118-221.049-90.686-98.244-98.244-119.026-251.278-52.9-372.193 7.557-13.225 24.561-18.893 37.786-11.336s18.893 24.561 11.336 37.786c-54.79 98.244-37.786 224.828 43.454 304.178 47.232 47.232 111.469 75.572 179.484 75.572s132.251-26.45 179.484-75.572c47.232-49.122 75.572-111.469 75.572-179.484s-26.45-132.251-75.572-179.484c-73.683-73.683-183.263-94.465-277.728-54.79-15.114 5.668-30.229 0-37.786-15.114-5.668-15.114 0-30.229 15.114-37.786 39.675-17.004 79.351-24.561 120.915-24.561 81.24 0 160.59 32.118 221.049 90.686 58.568 58.568 90.686 137.919 90.686 221.049 0 73.683-26.45 143.587-71.793 200.267l132.251 132.251v-64.236c0-15.114 13.225-28.339 28.339-28.339s28.339 13.225 28.339 28.339v134.14c3.779 1.889 3.779 5.668 1.889 9.446v0z" />
<glyph unicode="&#xe90c;" glyph-name="add-contact" horiz-adv-x="1290" d="M325.962 613.067c95.711 0 173.39 77.679 173.39 173.39s-77.679 173.39-173.39 173.39-173.39-77.679-173.39-173.39 77.679-173.39 173.39-173.39zM325.962 918.233c72.685 0 131.777-59.091 131.777-131.777s-59.091-131.777-131.777-131.777-131.777 59.091-131.777 131.777 59.091 131.777 131.777 131.777zM783.713 613.067c95.711 0 173.39 77.679 173.39 173.39s-77.679 173.39-173.39 173.39-173.39-77.679-173.39-173.39 77.679-173.39 173.39-173.39zM783.713 918.233c72.685 0 131.777-59.091 131.777-131.777s-59.091-131.777-131.777-131.777-131.777 59.091-131.777 131.777 59.091 131.777 131.777 131.777zM1008.98 380.307c4.162-5.271 10.265-8.046 16.368-8.046 4.439 0 8.877 1.388 12.761 4.439 9.155 6.936 10.82 19.974 3.607 29.129-62.143 80.453-156.467 126.783-258.004 126.783-65.195 0-128.448-19.142-182.268-55.762-9.432-6.381-11.929-19.419-5.548-28.852s19.419-11.929 28.852-5.548c46.885 31.627 102.092 48.55 158.964 48.55 88.776 0 170.893-40.226 225.269-110.692zM325.962 532.614c-179.77 0-325.973-146.202-325.973-325.973 0-11.375 9.432-20.807 20.807-20.807s20.807 9.432 20.807 20.807c0 156.744 127.615 284.359 284.359 284.359s284.359-127.615 284.359-284.359c0-11.375 9.432-20.807 20.807-20.807s20.807 9.432 20.807 20.807c0 179.77-146.202 325.973-325.973 325.973zM1088.878 338.417c-110.97 0-201.132-90.163-201.132-201.132s90.163-201.132 201.132-201.132 201.132 90.163 201.132 201.132-90.163 201.132-201.132 201.132zM1088.878-22.235c-87.944 0-159.518 71.576-159.518 159.518s71.576 159.518 159.518 159.518 159.518-71.576 159.518-159.518-71.576-159.518-159.518-159.518zM1158.235 158.091h-48.55v48.55c0 11.375-9.432 20.807-20.807 20.807s-20.807-9.432-20.807-20.807v-48.55h-48.55c-11.375 0-20.807-9.432-20.807-20.807s9.432-20.807 20.807-20.807h48.55v-48.55c0-11.375 9.432-20.807 20.807-20.807s20.807 9.432 20.807 20.807v48.55h48.55c11.375 0 20.807 9.432 20.807 20.807s-9.432 20.807-20.807 20.807z" />
<glyph unicode="&#xe90d;" glyph-name="play2" d="M847.921 25.764c17.234 0 27.574 13.787 27.574 27.574s-13.787 27.574-27.574 27.574-27.574-13.787-27.574-27.574 13.787-27.574 27.574-27.574zM965.113 959.854h-903.069c-34.468 0-62.043-27.574-62.043-62.043v-899.622c0-34.468 27.574-62.043 62.043-62.043h899.622c34.468 0 62.043 27.574 62.043 62.043v899.622c3.447 34.468-24.128 62.043-58.596 62.043zM975.454-5.257c0-6.894-3.447-10.34-10.34-10.34h-903.069c-6.894 0-10.34 3.447-10.34 10.34v127.533h923.749v-127.533zM975.454 177.424h-923.749v554.939h923.749v-554.939zM975.454 784.066h-923.749v113.745c0 6.894 3.447 10.34 10.34 10.34h899.622c6.894 0 10.34-3.447 10.34-10.34v-113.745h3.447zM341.237 25.764c13.787 0 27.574 13.787 27.574 27.574s-13.787 27.574-27.574 27.574-27.574-13.787-27.574-27.574 13.787-27.574 27.574-27.574zM679.026 873.683c-17.234 0-27.574-13.787-27.574-27.574s13.787-27.574 27.574-27.574 27.574 13.787 27.574 27.574-10.34 27.574-27.574 27.574zM679.026 25.764c13.787 0 27.574 13.787 27.574 27.574s-13.787 27.574-27.574 27.574c-17.234 0-27.574-13.787-27.574-27.574s13.787-27.574 27.574-27.574zM510.132 25.764c17.234 0 27.574 13.787 27.574 27.574s-13.787 27.574-27.574 27.574c-13.787 0-27.574-13.787-27.574-27.574s13.787-27.574 27.574-27.574zM172.343 25.764c17.234 0 27.574 13.787 27.574 27.574s-13.787 27.574-27.574 27.574-27.574-13.787-27.574-27.574 13.787-27.574 27.574-27.574zM510.132 873.683c-13.787 0-27.574-13.787-27.574-27.574s13.787-27.574 27.574-27.574c17.234 0 27.574 13.787 27.574 27.574s-10.34 27.574-27.574 27.574zM341.237 873.683c-13.787 0-27.574-13.787-27.574-27.574s13.787-27.574 27.574-27.574 27.574 13.787 27.574 27.574-10.34 27.574-27.574 27.574zM410.174 263.595c3.447-3.447 6.894-3.447 10.34-3.447 6.894 0 10.34 3.447 17.234 6.894l220.597 175.788c6.894 3.447 10.34 13.787 10.34 20.681s-3.447 13.787-10.34 20.681l-220.597 175.788c-6.894 6.894-17.234 6.894-27.574 3.447s-13.787-13.787-13.787-24.128v-351.577c0-10.34 3.447-20.681 13.787-24.128zM448.088 584.15l155.108-120.639-155.108-120.639v241.278zM847.921 873.683c-13.787 0-27.574-13.787-27.574-27.574s13.787-27.574 27.574-27.574c17.234 0 27.574 13.787 27.574 27.574s-10.34 27.574-27.574 27.574zM172.343 873.683c-13.787 0-27.574-13.787-27.574-27.574s13.787-27.574 27.574-27.574c17.234 0 27.574 13.787 27.574 27.574s-10.34 27.574-27.574 27.574z" />
<glyph unicode="&#xe90e;" glyph-name="edit" horiz-adv-x="996" d="M980.869 563.413l-57.126-57.126-158.983 158.983 57.126 57.126c18.009 18.009 45.12 20.139 60.224 5.035l103.794-103.794c15.104-15.298 12.974-42.215-5.035-60.224zM738.037 638.741l158.983-158.983-379.159-379.352c-1.743-1.743-6.584-6.584-13.362-8.327-0.775-0.387-1.549-0.775-2.324-0.968l-197.906-63.129c-5.616-1.743-11.038-0.581-14.717 2.905-3.679 3.679-4.648 9.101-3.098 14.717l63.129 197.906c0.194 0.775 0.581 1.549 0.968 2.324 1.743 6.778 6.584 11.619 8.327 13.362l71.262 71.262h-240.896c-9.682 0-17.622 7.939-17.622 17.622s7.939 17.622 17.622 17.622h275.946l272.847 273.041zM468.869 112.605l-97.791 97.985-26.336-82.493 41.828-41.828 82.3 26.336zM732.034 575.613c-5.616 5.616-14.717 5.616-20.333 0l-295.697-295.697c-5.616-5.616-5.616-14.717 0-20.333s14.717-5.616 20.333 0l295.697 295.697c5.616 5.616 5.616 14.717 0 20.333zM714.218 12.684c0-10.651-8.52-19.171-19.171-19.171h-348.95l-31.564-10.070c-6.39-1.936-12.781-3.098-19.365-3.098-13.943 0-26.723 4.841-37.374 13.168h-181.059c-10.651 0-19.171 8.52-19.171 19.171v805.18c0 10.651 8.52 19.171 19.171 19.171h71.843v-30.402c0-10.651 8.52-19.171 19.171-19.171s19.171 8.52 19.171 19.171v30.402h110.185v-30.402c0-10.651 8.52-19.171 19.171-19.171s19.171 8.52 19.171 19.171v30.402h95.855v-30.402c0-10.651 8.52-19.171 19.171-19.171s19.171 8.52 19.171 19.171v30.402h105.537v-30.402c0-10.651 8.52-19.171 19.171-19.171s19.171 8.52 19.171 19.171v30.402h81.525c10.651 0 19.171-8.52 19.171-19.171v-132.841l57.513 57.513v75.328c0 42.215-34.469 76.684-76.684 76.684h-81.525v46.281c0 10.651-8.52 19.171-19.171 19.171s-19.171-8.52-19.171-19.171v-46.281h-105.537v46.281c0 10.651-8.52 19.171-19.171 19.171s-19.171-8.52-19.171-19.171v-46.281h-95.855v46.281c0 10.651-8.52 19.171-19.171 19.171s-19.171-8.52-19.171-19.171v-46.281h-110.185v46.281c0 10.651-8.52 19.171-19.171 19.171s-19.171-8.52-19.171-19.171v-46.281h-71.843c-42.215 0-76.684-34.469-76.684-76.684v-805.18c0-42.215 34.469-76.684 76.684-76.684h618.312c42.215 0 76.684 34.469 76.684 76.684v279.044l-57.513-57.513v-221.531zM564.336 664.884h-375.092c-9.682 0-17.622-7.939-17.622-17.622s7.939-17.622 17.622-17.622h375.092c9.682 0 17.622 7.939 17.622 17.622s-7.939 17.622-17.622 17.622zM564.336 523.135h-375.092c-9.682 0-17.622-7.939-17.622-17.622s7.939-17.622 17.622-17.622h375.092c9.682 0 17.622 7.939 17.622 17.622s-7.939 17.622-17.622 17.622z" />
<glyph unicode="&#xe90f;" glyph-name="like" d="M933.248 624.896c-40 10.496-134.048 10.368-271.616 14.016 6.496 30.016 8 57.088 8 105.152 0 114.816-83.648 215.936-157.632 215.936-52.256 0-95.328-42.72-96-95.264-0.704-64.448-20.64-175.744-128-232.192-7.872-4.16-30.4-15.264-33.696-16.704l1.696-1.44c-16.8 14.496-40.096 25.6-64 25.6h-96c-52.928 0-96-43.072-96-96v-512c0-52.928 43.072-96 96-96h96c38.080 0 69.952 23.008 85.376 55.264 0.384-0.128 1.056-0.32 1.504-0.384 2.112-0.576 4.608-1.184 7.648-1.984 0.576-0.16 0.864-0.224 1.472-0.384 18.432-4.576 53.92-13.056 129.76-30.496 16.256-3.712 102.144-22.016 191.104-22.016h174.944c53.312 0 91.744 20.512 114.624 61.696 0.32 0.64 7.68 15.008 13.696 34.432 4.512 14.624 6.176 35.328 0.736 56.32 34.368 23.616 45.44 59.328 52.64 82.56 12.064 38.112 8.448 66.752 0.064 87.264 19.328 18.24 35.808 46.048 42.752 88.512 4.32 26.304-0.32 53.376-12.448 75.904 18.112 20.352 26.368 45.952 27.328 69.632l0.384 6.688c0.224 4.192 0.416 6.784 0.416 16 0 40.416-28 91.968-90.752 109.888zM224 32c0-17.696-14.304-32-32-32h-96c-17.696 0-32 14.304-32 32v512c0 17.696 14.304 32 32 32h96c17.696 0 32-14.304 32-32v-512zM959.264 494.88c-0.64-15.808-7.264-46.88-63.264-46.88-48 0-64 0-64 0-8.864 0-16-7.168-16-16s7.136-16 16-16c0 0 14.016 0 62.016 0s54.304-39.808 51.2-59.008c-3.968-23.872-15.168-68.992-69.216-68.992-53.984 0-76 0-76 0-8.864 0-16-7.136-16-16 0-8.8 7.136-16 16-16 0 0 38.016 0 63.008 0 54.016 0 49.248-41.184 41.504-65.76-10.208-32.288-16.448-62.24-84.512-62.24-23.008 0-52.192 0-52.192 0-8.864 0-16-7.136-16-16 0-8.8 7.136-16 16-16 0 0 22.176 0 50.176 0 35.008 0 36.64-33.12 32.992-44.992-4-12.992-8.736-22.624-8.928-23.072-9.664-17.44-25.248-27.936-58.24-27.936h-174.944c-87.872 0-175.040 19.936-177.28 20.448-132.928 30.624-139.936 32.992-148.288 35.36 0 0-27.072 4.576-27.072 28.192l-0.224 441.984c0 15.008 9.568 28.576 25.408 33.344 1.984 0.768 4.672 1.6 6.592 2.4 146.176 60.544 190.688 193.28 192 302.272 0.192 15.328 12 32 32 32 33.824 0 93.632-67.904 93.632-151.936 0-75.872-3.072-88.992-29.632-168.064 320 0 317.76-4.608 345.984-12 35.008-10.016 38.016-39.008 38.016-48.992 0-10.976-0.32-9.376-0.736-20.128zM144 128c-26.496 0-48-21.504-48-48s21.504-48 48-48 48 21.504 48 48-21.504 48-48 48zM144 64c-8.8 0-16 7.2-16 16s7.2 16 16 16 16-7.2 16-16-7.2-16-16-16z" />
<glyph unicode="&#xe910;" glyph-name="dislike" d="M90.752 271.104c40-10.496 134.048-10.368 271.616-14.016-6.496-30.016-8-57.088-8-105.152 0-114.816 83.648-215.936 157.632-215.936 52.256 0 95.328 42.72 96 95.264 0.704 64.448 20.64 175.744 128 232.192 7.872 4.16 30.4 15.264 33.696 16.704l-1.696 1.44c16.8-14.496 40.096-25.6 64-25.6h96c52.928 0 96 43.072 96 96v512c0 52.928-43.072 96-96 96h-96c-38.080 0-69.952-23.008-85.376-55.264-0.384 0.128-1.056 0.32-1.504 0.384-2.112 0.576-4.608 1.184-7.648 1.984-0.576 0.16-0.864 0.224-1.472 0.384-18.432 4.576-53.92 13.056-129.76 30.496-16.256 3.712-102.144 22.016-191.104 22.016h-174.944c-53.312 0-91.744-20.512-114.624-61.696-0.32-0.64-7.68-15.008-13.696-34.432-4.512-14.624-6.176-35.328-0.736-56.32-34.368-23.616-45.44-59.328-52.64-82.56-12.064-38.112-8.448-66.752-0.064-87.264-19.328-18.24-35.808-46.048-42.752-88.512-4.32-26.304 0.32-53.376 12.448-75.904-18.112-20.352-26.368-45.952-27.328-69.632l-0.384-6.688c-0.224-4.192-0.416-6.784-0.416-16 0-40.416 28-91.968 90.752-109.888zM800 864c0 17.696 14.304 32 32 32h96c17.696 0 32-14.304 32-32v-512c0-17.696-14.304-32-32-32h-96c-17.696 0-32 14.304-32 32v512zM64.736 401.12c0.64 15.808 7.264 46.88 63.264 46.88 48 0 64 0 64 0 8.864 0 16 7.168 16 16s-7.136 16-16 16c0 0-14.016 0-62.016 0s-54.304 39.808-51.2 59.008c3.968 23.872 15.168 68.992 69.216 68.992 53.984 0 76 0 76 0 8.864 0 16 7.136 16 16 0 8.8-7.136 16-16 16 0 0-38.016 0-63.008 0-54.016 0-49.248 41.184-41.504 65.76 10.208 32.288 16.448 62.24 84.512 62.24 23.008 0 52.192 0 52.192 0 8.864 0 16 7.136 16 16 0 8.8-7.136 16-16 16 0 0-22.176 0-50.176 0-35.008 0-36.64 33.12-32.992 44.992 4 12.992 8.736 22.624 8.928 23.072 9.664 17.44 25.248 27.936 58.24 27.936h174.944c87.872 0 175.040-19.936 177.28-20.448 132.928-30.624 139.936-32.992 148.288-35.36 0 0 27.072-4.576 27.072-28.192l0.224-441.984c0-15.008-9.568-28.576-25.408-33.344-1.984-0.768-4.672-1.6-6.592-2.4-146.176-60.544-190.688-193.28-192-302.272-0.192-15.328-12-32-32-32-33.824 0-93.632 67.904-93.632 151.936 0 75.872 3.072 88.992 29.632 168.064-320 0-317.76 4.608-345.984 12-35.008 10.016-38.016 39.008-38.016 48.992 0 10.976 0.32 9.376 0.736 20.128zM880 768c26.496 0 48 21.504 48 48s-21.504 48-48 48-48-21.504-48-48 21.504-48 48-48zM880 832c8.8 0 16-7.2 16-16s-7.2-16-16-16-16 7.2-16 16 7.2 16 16 16z" />
<glyph unicode="&#xe911;" glyph-name="images" horiz-adv-x="1152" d="M1088 832h-64v64c0 35.2-28.8 64-64 64h-896c-35.2 0-64-28.8-64-64v-768c0-35.2 28.8-64 64-64h64v-64c0-35.2 28.8-64 64-64h896c35.2 0 64 28.8 64 64v768c0 35.2-28.8 64-64 64zM128 768v-640h-63.886c-0.040 0.034-0.082 0.076-0.114 0.116v767.77c0.034 0.040 0.076 0.082 0.114 0.114h895.77c0.040-0.034 0.082-0.076 0.116-0.116v-63.884h-768c-35.2 0-64-28.8-64-64v0zM1088 0.116c-0.034-0.040-0.076-0.082-0.116-0.116h-895.77c-0.040 0.034-0.082 0.076-0.114 0.116v767.77c0.034 0.040 0.076 0.082 0.114 0.114h895.77c0.040-0.034 0.082-0.076 0.116-0.116v-767.768zM960 608c0-53.020-42.98-96-96-96s-96 42.98-96 96 42.98 96 96 96 96-42.98 96-96zM1024 64h-768v128l224 384 256-320h64l224 192z" />
<glyph unicode="&#xe912;" glyph-name="arrow-right" horiz-adv-x="640" d="M4.267 55.465l392.534 392.534-392.534 392.534 119.467 119.467 512-512-512-512-119.467 119.467z" />
<glyph unicode="&#xe913;" glyph-name="atom" horiz-adv-x="960" d="M18.144 192c25.12-43.52 81.536-66.528 163.104-66.528 0 0 0 0 0.032 0 36.672 0 77.024 5.152 119.104 14.016 40.512-124.128 105.184-203.488 179.616-203.488s139.104 79.36 179.616 203.488c42.112-8.832 82.464-14.016 119.136-14.016 0 0 0 0 0 0 81.536 0 137.952 23.008 163.072 66.528 32.512 56.352 3.744 151.040-94.912 256 98.656 104.96 127.424 199.648 94.912 256-25.12 43.52-81.536 66.528-163.104 66.528-36.672 0-77.056-5.152-119.136-14.016-40.48 124.128-105.152 203.488-179.584 203.488s-139.104-79.36-179.616-203.488c-42.112 8.864-82.496 14.016-119.136 14.016-81.568 0-137.984-23.008-163.104-66.528-32.512-56.352-3.744-151.040 94.912-256-98.656-104.96-127.456-199.648-94.912-256zM480-32c-58.848 0-112.512 70.368-148.064 178.528 48.096 12.192 98.112 29.44 148.064 51.168 49.952-21.728 99.968-38.976 148.064-51.168-35.552-108.16-89.216-178.528-148.064-178.528zM288 448c0 37.248 1.984 73.504 5.376 108.576 28.576 19.904 58.784 39.296 90.624 57.696 31.488 18.176 63.712 34.464 96 49.056 32.288-14.56 64.512-30.848 96-49.056 31.84-18.368 62.016-37.76 90.624-57.696 3.392-35.072 5.376-71.328 5.376-108.576s-1.984-73.504-5.376-108.576c-28.576-19.904-58.784-39.296-90.624-57.696-31.488-18.176-63.712-34.464-96-49.056-32.288 14.56-64.512 30.848-96 49.056-31.84 18.368-62.016 37.76-90.624 57.696-3.392 35.072-5.376 71.328-5.376 108.576zM259.136 364.064c-36.672 27.552-69.888 55.84-98.752 83.936 28.864 28.096 62.080 56.384 98.752 83.936-1.888-27.328-3.136-55.2-3.136-83.936s1.248-56.608 3.136-83.936zM298.272 598.848c5.888 42.912 14.144 83.328 24.448 120.128 38.24-9.632 77.92-22.944 117.824-39.008-24.384-11.808-48.704-24.224-72.544-37.984-24.736-14.304-47.616-28.704-69.728-43.136zM519.424 679.968c39.904 16.064 79.584 29.376 117.824 39.008 10.304-36.8 18.56-77.216 24.448-120.128-22.080 14.432-44.992 28.832-69.728 43.136-23.808 13.76-48.128 26.176-72.544 37.984zM700.864 531.936c36.704-27.552 69.888-55.808 98.752-83.936-28.864-28.096-62.080-56.384-98.752-83.936 1.888 27.328 3.136 55.2 3.136 83.936s-1.248 56.608-3.136 83.936zM661.728 297.152c-5.888-42.912-14.144-83.328-24.448-120.128-38.24 9.632-77.92 22.944-117.824 39.008 24.416 11.776 48.736 24.224 72.576 37.984 24.704 14.304 47.584 28.704 69.696 43.136zM368 254.016c23.84-13.76 48.16-26.208 72.576-37.984-39.904-16.064-79.584-29.376-117.824-39.008-10.304 36.8-18.56 77.216-24.448 120.128 22.080-14.432 44.96-28.832 69.696-43.136zM914.144 208c-18.816-32.608-66.88-50.528-135.36-50.528-33.792 0-70.976 4.672-109.824 12.64 12.672 45.568 22.176 96.256 28.064 150.656 49.472 34.688 91.232 69.376 126.080 103.328 81.024-85.824 119.232-167.232 91.040-216.096zM778.752 738.528c68.48 0 116.576-17.952 135.36-50.528 28.224-48.864-10.016-130.272-91.040-216.096-34.848 33.92-76.608 68.64-126.080 103.328-5.888 54.4-15.392 105.088-28.064 150.656 38.848 7.968 76.064 12.64 109.824 12.64zM480 928c58.848 0 112.512-70.368 148.064-178.528-48.096-12.192-98.112-29.44-148.064-51.168-49.952 21.728-99.968 38.976-148.064 51.168 35.552 108.16 89.216 178.528 148.064 178.528zM45.856 688c18.816 32.608 66.88 50.528 135.36 50.528 33.792 0 70.976-4.672 109.824-12.64-12.672-45.568-22.176-96.256-28.064-150.656-49.472-34.688-91.232-69.376-126.080-103.328-81.024 85.824-119.232 167.232-91.040 216.096zM136.896 424.096c34.848-33.92 76.608-68.64 126.080-103.328 5.888-54.4 15.392-105.088 28.064-150.656-38.816-7.968-76-12.64-109.792-12.64 0 0-0.032 0-0.032 0-68.48 0-116.576 17.952-135.36 50.528-28.192 48.864 10.016 130.272 91.040 216.096zM480 368c44.096 0 80 35.872 80 80s-35.904 80-80 80-80-35.872-80-80 35.904-80 80-80zM480 496c26.464 0 48-21.536 48-48s-21.536-48-48-48-48 21.536-48 48 21.536 48 48 48z" />
<glyph unicode="&#xe914;" glyph-name="heart-2" d="M1023.014-29.712l-224 224c45.715 52.572 70.857 118.857 70.857 192 0 137.143-93.714 253.714-221.714 287.999 11.429 25.143 16 52.572 16 77.714 0 52.572-20.571 105.142-59.429 146.285-73.143 73.143-189.714 80-272 16-34.286 29.714-77.714 45.715-125.714 45.715-52.572 0-105.142-20.571-146.285-59.429-77.714-77.714-80-203.429-4.572-287.999v0c11.429-13.714 45.715-48 139.428-141.714 29.714-29.714 57.142-57.142 80-80 0-2.285 0-2.285 0-4.572 0-164.571 132.571-297.142 297.142-297.142 73.143 0 141.714 27.429 192 70.857l224-224 34.286 34.286zM227.587 505.145c-52.572 50.285-114.286 114.286-132.571 132.571l-6.857 6.857c-57.142 64-57.142 162.286 4.572 224 32 29.714 73.143 45.715 114.286 45.715 43.428 0 82.286-16 109.714-43.428l16-16 16 16c64 59.429 162.286 59.429 224-2.285 29.714-32 45.715-73.143 45.715-114.286 0-25.143-6.857-48-18.286-70.857-9.142 2.285-18.286 2.285-27.429 2.285-141.714 0-262.856-100.572-290.285-235.428-16 16-34.286 34.286-54.857 54.857zM572.728 137.145c-139.428 0-251.428 111.999-251.428 251.428s111.999 251.428 251.428 251.428 251.428-111.999 251.428-251.428-111.999-251.428-251.428-251.428z" />
<glyph unicode="&#xe915;" glyph-name="vido-camera" d="M585.144 777.143c-40.397 0-73.143-32.746-73.143-73.143s32.746-73.143 73.143-73.143 73.143 32.746 73.143 73.143-32.746 73.143-73.143 73.143zM950.858 557.715l-146.286-146.286v73.143c0 35-24.589 64.24-57.429 71.432 35.666 39.021 57.429 90.965 57.429 147.994 0 121.189-98.241 219.431-219.429 219.431-115.569 0-210.27-89.346-218.8-202.735-38.896 35.085-90.409 56.449-146.914 56.449-121.186 0-219.429-98.242-219.429-219.431 0-121.185 98.242-219.426 219.429-219.426h-73.143v-146.286h73.143v-146.286c0-40.397 32.746-73.143 73.143-73.143h438.857c40.397 0 73.143 32.746 73.143 73.143v73.143l146.286-146.286h73.143v585.143h-73.143zM219.43 630.858c-40.397 0-73.143-32.746-73.143-73.143s32.746-73.143 73.143-73.143v-73.143c-80.791 0-146.286 65.495-146.286 146.285 0 80.792 65.495 146.287 146.286 146.287s146.286-65.494 146.286-146.286h-73.143c0 40.397-32.746 73.143-73.143 73.143zM585.144 192h-146.286v146.286h146.286v-146.286zM731.43 316.815c-38.315 38.339-80.315 80.362-83.855 83.902-6.617 6.618-15.76 10.712-25.859 10.712h-219.429c-20.199 0-36.571-16.373-36.571-36.571v-219.429c0-9.519 3.638-18.189 9.595-24.694 0.606-0.663 44.712-44.759 85.039-85.021h-131.206c-20.199 0-36.571 16.373-36.571 36.571v365.714c0 20.199 16.373 36.571 36.571 36.571h365.714c20.199 0 36.571-16.373 36.571-36.571v-131.185zM585.144 557.715c-80.791 0-146.286 65.495-146.286 146.285 0 80.792 65.495 146.287 146.286 146.287s146.286-65.495 146.286-146.287c0-80.79-65.495-146.285-146.286-146.285zM950.858 192l-73.143 73.143 0.094 146.382 73.049 73.049v-292.574z" />
<glyph unicode="&#xe916;" glyph-name="burger" horiz-adv-x="1280" d="M375.573 900.201h904.434v-100.485h-904.434v100.485zM375.573 498.259h904.434v-100.485h-904.434v100.485zM375.573 96.316h904.434v-100.485h-904.434v100.485zM100.804 749.472c55.473 0 100.428 44.983 100.428 100.485 0 55.473-44.952 100.456-100.428 100.456h-0.591c-55.473 0-100.22-44.983-100.22-100.456 0.029-55.473 45.277-100.485 100.811-100.485zM100.804 347.529c55.473 0 100.428 44.952 100.428 100.456s-44.952 100.456-100.428 100.456h-0.591c-55.473 0-100.22-44.952-100.22-100.456s45.277-100.456 100.811-100.456zM100.804-54.413c55.473 0 100.428 44.983 100.428 100.456 0 55.533-44.952 100.485-100.428 100.485h-0.591c-55.473 0-100.22-44.952-100.22-100.485 0.029-55.473 45.277-100.456 100.811-100.456z" />
<glyph unicode="&#xe917;" glyph-name="star" d="M1024 559.885h-391.771l-120.229 363.657-120.229-363.657h-391.771l320.457-223.771-124.8-363.657 316.343 225.371 316.343-225.371-125.029 363.657 320.686 223.771zM755.657 70.285l-243.657 173.714-243.657-173.714 97.371 280-246.857 170.743h299.429l93.714 281.829 93.714-281.829h299.429l-246.857-170.514 97.371-280.229z" />
<glyph unicode="&#xe918;" glyph-name="minus" d="M0 448c0 282.908 229.092 512 512 512v0c282.795 0 511.886-229.092 512-512v0c-0.114-282.795-229.205-511.886-512-512v0c-282.908 0.114-512 229.205-512 512v0zM120.377 448c0.455-216.121 175.388-391.054 391.623-391.566v0c216.121 0.512 391.054 175.445 391.566 391.566v0c-0.512 216.235-175.445 391.168-391.566 391.68v0c-216.235-0.512-391.168-175.445-391.623-391.68v0zM227.556 504.889h568.889v-113.778h-568.889v113.778z" />
<glyph unicode="&#xe919;" glyph-name="share" d="M866.462 312.001v-159.384q0-73.231-52-125.231t-125.231-52h-512q-73.231 0-125.231 52t-52 125.231v512q0 73.231 52 125.231t125.231 52h156.923q8 0 13.846-5.847t5.847-13.846q0-16.616-16-19.693-47.385-16-81.846-36.923-6.154-2.462-9.846-2.462h-68.923q-40.615 0-69.538-28.923t-28.923-69.538v-512q0-40.615 28.923-69.538t69.538-28.923h512q40.615 0 69.538 28.923t28.923 69.538v131.692q0 11.692 11.077 17.846 17.231 8 33.231 22.769 9.846 9.846 21.538 4.923 12.923-5.539 12.923-17.846zM1012.308 617.232l-236.308-236.308q-11.077-11.692-27.692-11.692-7.384 0-15.385 3.077-24 10.461-24 36.307v118.153h-98.462q-198.769 0-269.539-80.615-73.231-84.308-45.539-291.077 1.846-14.154-12.308-20.924-4.923-1.231-7.384-1.231-9.846 0-16 8-6.154 8.615-12.923 19.077t-24.307 42.154-30.462 61.231-23.692 70.154-10.769 75.077q0 30.154 2.154 56t8.615 55.385 17.231 54.154 28.923 50.153 42.154 45.539 58.154 37.846 76.615 29.846 98.154 18.77 120.923 6.77h98.462v118.153q0 25.846 24 36.307 8 3.077 15.385 3.077 16 0 27.692-11.692l236.308-236.308q11.692-11.692 11.692-27.692t-11.692-27.692z" />
<glyph unicode="&#xe91a;" glyph-name="inform" horiz-adv-x="784" d="M136 256v64h384v-64h-384zM136 512v64h512v-64h-512zM136 384v64h512v-64h-512zM597.248 960h-589.248v-1024h768v845.312l-178.752 178.688zM583.936 882.784l114.816-114.784h-114.816v114.784zM72 0v896.064h448v-192.032h192v-704.032h-640z" />
<glyph unicode="&#xe91b;" glyph-name="twitter" horiz-adv-x="1376" d="M1318.033 838.784c-46.322-20.59-96.175-34.479-148.483-40.695 53.408 31.973 94.357 82.618 113.67 143.034-49.954-29.645-105.255-51.156-164.162-62.771-47.143 50.235-114.336 81.648-188.691 81.648-142.752 0-258.495-115.741-258.495-258.521 0-20.232 2.278-39.954 6.701-58.907-214.858 10.794-405.366 113.695-532.874 270.108-22.252-38.163-34.992-82.567-34.992-129.989 0-89.678 45.632-168.817 115.001-215.165-42.358 1.355-82.234 12.994-117.097 32.357-0.026-1.075-0.026-2.173-0.026-3.274 0-125.232 89.115-229.694 207.388-253.481-21.691-5.883-44.531-9.055-68.115-9.055-16.677 0-32.869 1.612-48.649 4.655 32.919-102.698 128.376-177.463 241.486-179.535-88.475-69.344-199.921-110.677-321.060-110.677-20.846 0-41.438 1.227-61.67 3.633 114.437-73.385 250.31-116.15 396.286-116.15 475.527 0 735.53 393.907 735.53 735.53 0 11.202-0.231 22.381-0.716 33.481 50.492 36.373 94.333 81.927 128.966 133.773z" />
<glyph unicode="&#xe91c;" glyph-name="heart-3" d="M755.188 896c-107.63 0-200.258-87.554-243.164-179-42.938 91.444-135.578 179-243.216 179-148.382 0-268.808-120.44-268.808-268.832 0-301.846 304.5-380.994 512.022-679.418 196.154 296.576 511.978 387.206 511.978 679.418 0 148.392-120.43 268.832-268.812 268.832z" />
<glyph unicode="&#xe91d;" glyph-name="camera-2" horiz-adv-x="1344" d="M1230.078 796.8h-216l-129.28 130.56c0 0-0.64 0.64-0.959 0.64l-0.64 0.64c-19.2 19.2-45.12 31.36-74.56 31.36h-268.799c-31.36 0-59.199-13.439-78.72-34.88v-0.32l-126.4-128h-220.8c-59.521 0-107.52-46.719-107.52-106.24v-646.72c0-59.521 47.999-107.84 107.52-107.84h1116.16c59.199 0 107.52 48.319 107.52 107.84v646.72c0 59.521-48.319 106.24-107.52 106.24zM671.999 97.601c-162.879 0-295.68 133.12-295.68 296.32 0 163.521 132.8 296.32 295.68 296.32 163.199 0 295.68-132.8 295.68-296.32 0-163.199-132.48-296.32-295.68-296.32zM1209.919 625.6c-24.64 0-44.801 20.16-44.801 45.12s20.16 45.12 44.801 45.12c24.64 0 44.801-20.16 44.801-45.12s-20.16-45.12-44.801-45.12zM671.999 617.921c-123.519 0-223.359-100.16-223.359-224 0-123.519 99.84-224 223.359-224 123.2 0 223.359 100.16 223.359 224s-100.16 224-223.359 224z" />
<glyph unicode="&#xe91e;" glyph-name="download" horiz-adv-x="1424" d="M1155.994 514.781c-11.073 100.174-96 178.088-199.125 178.088-47.070 0-90.35-16.233-124.546-43.406-38.669 128.16-157.64 221.493-298.411 221.493-172.122 0-311.652-139.53-311.652-311.652 0-16.731 1.32-33.153 3.857-49.17-78.752-18.395-137.421-89.206-137.421-173.438 0-98.355 79.877-178.088 177.946-178.088h126.286l74.203-89.043h-200.339c-147.509 0-267.139 119.598-267.139 267.131 0 98.712 53.762 185.137 133.659 231.379 4.665 217.248 182.234 391.925 400.6 391.925 143.96 0 270.19-75.919 340.835-189.904 26.034 7.69 53.595 11.818 82.122 11.818 123.974 0 229.739-77.954 270.953-187.521 113.257-30.968 196.526-134.61 196.526-257.695 0-147.232-119.602-267.131-267.139-267.131h-200.339l74.203 89.043h126.286c98.277 0 177.946 79.932 177.946 178.088 0 98.355-79.877 178.088-177.946 178.088zM712-64l-222.609 267.131h133.564v356.173h178.088v-356.173h133.564z" />
<glyph unicode="&#xe91f;" glyph-name="send" d="M1.383 452.203l1021.235 507.797-511.802-1024v516.203h-509.433z" />
<glyph unicode="&#xe920;" glyph-name="smail" d="M512-64c282.77 0 512 229.23 512 512s-229.23 512-512 512-512-229.23-512-512 229.23-512 512-512zM512 864c229.75 0 416-186.25 416-416s-186.25-416-416-416-416 186.25-416 416 186.25 416 416 416zM512 361.24c115.95 0 226.23 30.806 320 84.92-14.574-178.438-153.128-318.16-320-318.16-166.868 0-305.422 139.872-320 318.304 93.77-54.112 204.050-85.064 320-85.064zM256 608c0 53.019 28.654 96 64 96s64-42.981 64-96c0-53.019-28.654-96-64-96s-64 42.981-64 96zM640 608c0 53.019 28.654 96 64 96s64-42.981 64-96c0-53.019-28.654-96-64-96s-64 42.981-64 96z" />
<glyph unicode="&#xe921;" glyph-name="instagram" d="M826.103 959.99h-628.206c-109.122 0-197.897-88.755-197.897-197.876v-628.226c0-109.122 88.775-197.876 197.897-197.876h628.226c109.122 0 197.876 88.755 197.876 197.876v628.247c-0.021 109.122-88.775 197.856-197.897 197.856zM882.863 841.986l22.638 0.082v-173.566l-172.987-0.558-0.599 173.545 150.948 0.495zM365.844 553.103c32.801 45.38 86.008 75.143 146.156 75.143s113.355-29.764 146.115-75.143c21.336-29.619 34.123-65.848 34.123-105.093 0-99.372-80.927-180.216-180.258-180.216-99.392 0-180.237 80.844-180.237 180.216 0.021 39.245 12.764 75.474 34.102 105.093zM924.216 133.907c0-54.137-44.017-98.111-98.111-98.111h-628.206c-54.117 0-98.132 43.974-98.132 98.111v419.196h152.848c-13.199-32.47-20.614-67.935-20.614-105.093 0-154.356 125.583-280.022 280.001-280.022 154.397 0 279.98 125.665 279.98 280.022 0 37.159-7.456 72.624-20.655 105.093h152.889v-419.196z" />
<glyph unicode="&#xe922;" glyph-name="user" d="M512 950.857c282.857 0 512-229.143 512-512 0-281.143-228-512-512-512-283.429 0-512 230.286-512 512 0 282.857 229.143 512 512 512zM865.714 178.857c53.143 73.143 85.143 162.857 85.143 260 0 241.714-197.143 438.857-438.857 438.857s-438.857-197.143-438.857-438.857c0-97.143 32-186.857 85.143-260 20.571 102.286 70.286 186.857 174.857 186.857 46.286-45.143 109.143-73.143 178.857-73.143s132.571 28 178.857 73.143c104.571 0 154.286-84.571 174.857-186.857zM731.429 548.571c0 121.143-98.286 219.429-219.429 219.429s-219.429-98.286-219.429-219.429 98.286-219.429 219.429-219.429 219.429 98.286 219.429 219.429z" />
<glyph unicode="&#xe923;" glyph-name="arrows" d="M82.066 956.771l-82.065-82.065 426.706-426.706-426.706-426.706 82.065-82.065 508.77 508.77zM515.23 956.771l-82.065-82.065 426.706-426.706-426.706-426.706 82.065-82.065 508.77 508.77z" />
<glyph unicode="&#xe924;" glyph-name="friends" horiz-adv-x="752" d="M225.104 745.392c59.101 0 107.304 48.203 107.304 107.304s-48.203 107.304-107.304 107.304-107.723-47.784-107.723-106.885c0-59.52 48.203-107.723 107.723-107.723zM225.104 919.761c36.886 0 66.646-29.76 66.646-66.646s-30.179-66.646-66.646-66.646-66.646 29.76-66.646 66.646 29.76 66.646 66.646 66.646zM712.583 682.938c0 0 0 0 0 0-33.533 10.060-99.759 31.437-99.759 31.437-7.126 2.096-14.67 0.419-20.12-4.611l-65.808-61.616-65.808 61.616c-5.449 5.030-12.994 6.707-20.12 4.611 0 0-40.239-12.994-65.388-20.539-25.149 7.545-65.388 20.539-65.388 20.539-7.126 2.096-14.67 0.419-20.12-4.611l-64.969-61.616-65.808 61.197c-5.449 5.030-12.994 6.707-20.12 4.611 0 0-66.227-21.377-99.759-31.437-18.862-5.868-30.179-20.539-30.179-40.239 0-1.677 0-5.030 0-5.449l16.347-295.086 0.419-5.030c3.353-44.85 10.060-58.263 45.269-70.838l17.605-268.26c2.096-34.371 31.018-61.616 65.808-61.616h139.998c34.79 0 63.293 27.245 65.808 61.616l15.090 232.213 15.090-232.213c2.096-34.371 31.018-61.616 65.808-61.616h140.418c34.371 0 63.293 26.826 65.808 61.616l17.605 268.26c34.79 12.575 42.335 26.407 45.269 70.838l17.185 300.955v4.192c0 20.539-11.317 35.209-30.179 41.077zM701.685 639.345l-16.347-294.248-0.419-5.030c-2.096-30.179-2.096-30.179-29.76-38.982-7.964-2.515-13.832-9.641-14.251-18.024l-18.443-282.093c-0.838-12.994-11.736-23.473-24.73-23.473h-140.418c-12.994 0-24.311 10.479-25.149 23.473l-18.443 282.093c-0.419 8.383-6.707 15.928-14.67 18.443-7.545 2.515-15.509 3.353-23.054 3.353-7.126 0-14.251-0.838-20.958-2.934-0.838 0-1.677-0.419-2.096-0.419-7.964-2.515-13.413-9.641-13.832-18.024l-18.443-282.093c-0.838-12.994-11.736-23.473-25.149-23.473h-140.418c-12.994 0-24.311 10.479-25.149 23.473l-18.443 282.093c-0.419 8.383-6.287 15.928-14.251 18.024-27.664 8.383-27.664 8.383-29.76 38.982l-16.766 298.859-0.838 3.772c0 0 0.419 0.419 1.677 0.838 25.149 7.545 68.323 21.377 88.861 27.664l70.838-66.227c7.964-7.545 20.12-7.545 28.084 0l70.838 66.227c15.509-5.030 43.592-13.832 60.359-18.862 3.772-1.257 7.964-1.257 12.156 0 16.766 5.030 44.431 13.832 60.359 18.862l70.838-66.227c7.964-7.545 20.12-7.545 28.084 0l70.838 66.227c20.539-6.707 63.712-20.12 88.861-27.664 1.257-0.419 2.096-0.838 1.257-1.257l-1.257-3.353zM445.999 533.718v8.383c0 38.562-31.437 69.999-69.999 69.999s-69.999-31.437-69.999-69.999v-4.611h-2.515c-11.317 0-20.539-9.221-20.539-20.539v-103.951c0-21.796 18.024-39.82 39.82-39.82h126.166c11.317 0 20.539 9.221 20.539 20.539v103.951c-0.419 15.928-9.641 29.76-23.473 36.047zM376 571.442c16.347 0 29.341-12.994 29.341-29.341v-4.611h-58.682v4.611c0 16.347 13.413 29.341 29.341 29.341zM323.605 413.001v83.412h103.113c0.419 0 0.838 0.419 1.677 0.419v-82.993l-104.789-0.838zM526.896 745.392c59.101 0 107.304 48.203 107.304 107.304s-48.203 107.304-107.304 107.304c-59.101 0-107.304-48.203-107.304-107.304s48.203-107.304 107.304-107.304zM526.896 919.761c36.886 0 66.646-29.76 66.646-66.646s-29.76-66.646-66.646-66.646c-36.886 0-66.646 29.76-66.646 66.646s30.179 66.646 66.646 66.646z" />
<glyph unicode="&#xe925;" glyph-name="exit" d="M566.491 247.223l44.251-44.251 245.394 245.029-245.029 245.394-44.251-44.251 113.006-115.931c19.158-20.050 41.966-36.421 67.386-48.078l1.368-0.562h-748.617v-73.143h747.154c-26.144-11.839-48.448-27.587-67.256-46.775l-0.035-0.037zM292.571 923.429v-219.429h73.143v146.286h585.143v-804.571h-585.143v146.286h-73.143v-219.429h731.429v950.857h-731.429z" />
<glyph unicode="&#xe926;" glyph-name="settings" horiz-adv-x="1040" d="M520 648c-110.457 0-200-89.543-200-200s89.543-200 200-200c110.457 0 200 89.543 200 200v0c0 110.457-89.543 200-200 200v0zM520 296c-83.947 0-152 68.053-152 152s68.053 152 152 152c83.947 0 152-68.053 152-152v0c0-83.947-68.053-152-152-152v0zM976 576h-71.44c-3.478 0.027-6.426 2.269-7.503 5.384l-0.017 0.056c-5.608 15.915-11.010 28.727-17.039 41.179l1.039-2.379c-0.538 1.047-0.853 2.283-0.853 3.594 0 2.184 0.875 4.164 2.294 5.607l-0.001-0.001 50.48 50.56c10.135 10.134 16.404 24.135 16.404 39.6s-6.269 29.466-16.404 39.6l-101.84 101.76c-10.134 10.135-24.135 16.404-39.6 16.404s-29.466-6.269-39.6-16.404l-50.48-50.48c-1.442-1.418-3.422-2.293-5.606-2.293-1.311 0-2.547 0.315-3.639 0.874l0.045-0.021c-10.079 4.995-22.892 10.396-36.025 15.127l-2.775 0.873c-3.171 1.094-5.413 4.042-5.44 7.517v71.443c0 30.928-25.072 56-56 56v0h-144c-30.928 0-56-25.072-56-56v0-71.44c-0.027-3.478-2.269-6.426-5.384-7.503l-0.056-0.017c-15.915-5.608-28.727-11.010-41.179-17.039l2.379 1.039c-1.047-0.538-2.283-0.853-3.594-0.853-2.184 0-4.164 0.875-5.607 2.294l0.001-0.001-50.56 50.48c-10.134 10.135-24.135 16.404-39.6 16.404s-29.466-6.269-39.6-16.404l-101.76-101.84c-10.135-10.134-16.404-24.135-16.404-39.6s6.269-29.466 16.404-39.6l50.48-50.48c1.418-1.442 2.293-3.422 2.293-5.606 0-1.311-0.315-2.547-0.874-3.639l0.021 0.045c-4.995-10.079-10.396-22.892-15.127-36.025l-0.873-2.775c-1.094-3.171-4.042-5.413-7.517-5.44h-71.443c-30.928 0-56-25.072-56-56v0-144c0-30.928 25.072-56 56-56v0h71.44c3.478-0.027 6.426-2.269 7.503-5.384l0.017-0.056c5.608-15.915 11.010-28.727 17.039-41.179l-1.039 2.379c0.538-1.047 0.853-2.283 0.853-3.594 0-2.184-0.875-4.164-2.294-5.607l0.001 0.001-50.48-50.56c-10.135-10.134-16.404-24.135-16.404-39.6s6.269-29.466 16.404-39.6l101.84-101.84c10.134-10.135 24.135-16.404 39.6-16.404s29.466 6.269 39.6 16.404l50.48 50.48c1.442 1.418 3.422 2.293 5.606 2.293 1.311 0 2.547-0.315 3.639-0.874l-0.045 0.021c10.079-4.995 22.892-10.396 36.025-15.127l2.775-0.873c3.171-1.094 5.413-4.042 5.44-7.517v-71.363c0-30.928 25.072-56 56-56v0h144c30.928 0 56 25.072 56 56v0 71.44c0.027 3.478 2.269 6.426 5.384 7.503l0.056 0.017c15.915 5.608 28.727 11.010 41.179 17.039l-2.379-1.039c1.047 0.538 2.283 0.853 3.594 0.853 2.184 0 4.164-0.875 5.607-2.294l-0.001 0.001 50.56-50.48c10.134-10.135 24.135-16.404 39.6-16.404s29.466 6.269 39.6 16.404l101.84 101.84c10.135 10.134 16.404 24.135 16.404 39.6s-6.269 29.466-16.404 39.6l-50.48 50.48c-1.418 1.442-2.293 3.422-2.293 5.606 0 1.311 0.315 2.547 0.874 3.639l-0.021-0.045c4.995 10.079 10.396 22.892 15.127 36.025l0.873 2.775c1.094 3.171 4.042 5.413 7.517 5.44h71.363c30.928 0 56 25.072 56 56v0 144c0 30.928-25.072 56-56 56v0zM984 376c0-4.418-3.582-8-8-8v0h-71.44c-24.281-0.028-44.94-15.505-52.678-37.129l-0.122-0.391c-4.938-13.981-9.691-25.234-14.995-36.17l0.915 2.090c-3.532-7.131-5.598-15.527-5.598-24.406 0-15.462 6.266-29.46 16.398-39.594l50.48-50.48c1.438-1.446 2.326-3.439 2.326-5.64s-0.889-4.194-2.327-5.64v0l-101.76-101.68c-1.446-1.438-3.439-2.326-5.64-2.326s-4.194 0.889-5.64 2.327v0l-50.48 50.48c-10.134 10.132-24.132 16.398-39.594 16.398-8.879 0-17.275-2.066-24.734-5.744l0.328 0.146c-8.87-4.393-20.151-9.147-31.713-13.31l-2.447-0.77c-21.981-7.886-37.424-28.537-37.44-52.798v-71.362c0-4.418-3.582-8-8-8v0h-143.84c-4.418 0-8 3.582-8 8v0 71.44c-0.028 24.281-15.505 44.94-37.129 52.678l-0.391 0.122c-13.981 4.938-25.234 9.691-36.17 14.995l2.090-0.915c-7.131 3.532-15.527 5.598-24.406 5.598-15.462 0-29.46-6.266-39.594-16.398l-50.48-50.48c-1.446-1.438-3.439-2.326-5.64-2.326s-4.194 0.889-5.64 2.327v0l-101.68 101.76c-1.438 1.446-2.326 3.439-2.326 5.64s0.889 4.194 2.327 5.64v0l50.48 50.48c10.132 10.134 16.398 24.132 16.398 39.594 0 8.879-2.066 17.275-5.744 24.734l0.146-0.328c-4.393 8.87-9.147 20.151-13.31 31.713l-0.77 2.447c-7.928 21.89-28.527 37.254-52.717 37.28h-71.443c-4.418 0-8 3.582-8 8v0 144c0 4.418 3.582 8 8 8v0h71.44c24.281 0.028 44.94 15.505 52.678 37.129l0.122 0.391c4.938 13.981 9.691 25.234 14.995 36.17l-0.915-2.090c3.532 7.131 5.598 15.527 5.598 24.406 0 15.462-6.266 29.46-16.398 39.594l-50.48 50.48c-1.438 1.446-2.326 3.439-2.326 5.64s0.889 4.194 2.327 5.64v0l101.76 101.68c1.446 1.438 3.439 2.326 5.64 2.326s4.194-0.889 5.64-2.327v0l50.48-50.48c10.134-10.132 24.132-16.398 39.594-16.398 8.879 0 17.275 2.066 24.734 5.744l-0.328-0.146c8.87 4.393 20.151 9.147 31.713 13.31l2.447 0.77c21.89 7.928 37.254 28.527 37.28 52.717v71.443c0 4.418 3.582 8 8 8v0h144c4.418 0 8-3.582 8-8v0-71.44c0.028-24.281 15.505-44.94 37.129-52.678l0.391-0.122c13.981-4.938 25.234-9.691 36.17-14.995l-2.090 0.915c7.131-3.532 15.527-5.598 24.406-5.598 15.462 0 29.46 6.266 39.594 16.398l50.48 50.48c1.446 1.438 3.439 2.326 5.64 2.326s4.194-0.889 5.64-2.327v0l101.84-101.84c1.438-1.446 2.326-3.439 2.326-5.64s-0.889-4.194-2.327-5.64v0l-50.48-50.48c-10.132-10.134-16.398-24.132-16.398-39.594 0-8.879 2.066-17.275 5.744-24.734l-0.146 0.328c4.393-8.87 9.147-20.151 13.31-31.713l0.77-2.447c7.886-21.981 28.537-37.424 52.798-37.44h71.202c4.418 0 8-3.582 8-8v0z" />
<glyph unicode="&#xe927;" glyph-name="edit-2" d="M960.464 710.237c-21.736 35.933-48.547 71.122-81.361 103.75-33.187 32.954-68.98 59.951-105.612 81.64l64.325 64.372c0 0 93.091 0 139.636-46.546s46.546-139.636 46.546-139.636l-63.535-63.581zM418.908 168.727h-186.182v186.182l22.342 22.342c37.841-17.92 75.451-43.101 109.288-76.893 33.885-33.932 59.019-71.447 76.893-109.288l-22.342-22.342zM906.704 656.524l-411.741-411.695c-21.736 35.887-48.547 71.168-81.361 103.75-33.141 33.001-68.98 59.951-105.612 81.64l412.533 412.486c37.841-17.827 75.451-43.008 109.288-76.847 33.932-33.885 59.066-71.494 76.893-109.335zM139.636 820.363v-744.727h744.727v325.818l139.636 141.405v-513.769c0-51.433-41.704-93.091-93.091-93.091h-837.818c-51.386 0-93.091 41.659-93.091 93.091v837.818c0 51.386 41.704 93.091 93.091 93.091h512.465l-139.683-139.636h-326.237z" />
<glyph unicode="&#xe928;" glyph-name="comment" horiz-adv-x="1207" d="M432.762 524.191c0-47.333-38-85.334-85.334-85.334s-85.334 38-85.334 85.334 38 85.334 85.334 85.334 85.334-38 85.334-85.334zM688.762 524.191c0-47.333-38-85.334-85.334-85.334s-85.334 38-85.334 85.334 38 85.334 85.334 85.334 85.334-38 85.334-85.334zM944.762 524.191c0-47.333-38-85.334-85.334-85.334s-85.334 38-85.334 85.334 38 85.334 85.334 85.334 85.334-38 85.334-85.334zM603.429 865.523c-277.333 0-512-156-512-341.333 0-99.334 66.667-194 182-259.334l58-33.333-18.001-64c-12.667-47.333-29.334-84-46.667-114.667 67.333 28 128.667 66 183.334 114l28.666 25.333 38-4.001c28.666-3.333 58-5.333 86.667-5.333 277.333 0 512 156 512 341.333s-234.667 341.333-512 341.333zM1200.762 524.191c0-236-267.334-426.666-597.334-426.666-32.667 0-65.333 2-96.667 5.333-87.333-77.334-191.333-132-306.667-161.334-24-6.666-50-11.333-76-14.666h-3.333c-13.334 0-25.333 10.667-28.666 25.333v0.666c-3.333 16.667 8 26.667 18.001 38.667 42 47.333 90 87.333 121.333 198.667-137.333 78-225.334 198.667-225.334 334 0 235.333 267.334 426.666 597.334 426.666v0c330 0 597.334-191.333 597.334-426.666z" />
<glyph unicode="&#xe929;" glyph-name="woman" horiz-adv-x="720" d="M328 258.133v-153.6h-74.667c-17.067 0-32-14.933-32-32s14.933-32 32-32h74.667v-72.533c0-17.067 14.933-32 32-32s32 14.933 32 32v72.533h74.667c17.067 0 32 14.933 32 32s-14.933 32-32 32h-74.667v153.6c179.2 17.067 320 166.4 320 349.867 0 194.133-157.867 352-352 352s-352-157.867-352-352c0-183.467 140.8-334.933 320-349.867zM360 896c157.867 0 288-130.133 288-288s-130.133-288-288-288-288 130.133-288 288 130.133 288 288 288z" />
<glyph unicode="&#xe92a;" glyph-name="man" d="M432.99-64h7.777c235.909 5.185 425.155 199.615 419.97 435.524-2.592 103.696-41.478 197.023-103.696 272.203l38.886 38.886 64.81-62.218c7.777-7.777 18.147-10.37 25.924-10.37 10.37 0 20.739 5.185 28.516 12.962 15.554 15.554 15.554 38.886 0 54.441l-67.403 59.625 88.142 90.734 2.592-88.142c0-20.739 18.147-38.886 38.886-38.886 0 0 0 0 0 0 20.739 0 38.886 18.147 38.886 38.886l-2.592 181.468c0 0 0 0 0 0 0 5.185 0 7.777-2.592 12.962 0 0 0 0 0 2.592-2.592 5.185-5.185 7.777-7.777 10.37 0 0 0 0 0 2.592 0 0 0 0 0 0-7.777 7.777-15.554 10.37-25.924 10.37 0 0 0 0 0 0l-181.468-2.592c-20.739 0-38.886-18.147-38.886-38.886s18.147-38.886 38.886-38.886c0 0 0 0 0 0l88.142 2.592-88.142-90.734-64.81 62.218c-15.554 15.554-38.886 15.554-54.441 0s-15.554-38.886 0-54.441l64.81-62.218-38.886-38.886c-72.587 59.625-165.914 93.327-267.018 93.327h-7.777c-114.066-2.592-220.354-49.256-300.719-132.213s-121.843-191.838-119.251-305.904c2.592-230.724 194.43-417.377 425.155-417.377zM181.526 607.433c64.81 67.403 152.952 106.289 246.279 106.289h7.777c189.246 0 347.382-152.952 349.975-342.198 2.592-191.838-150.36-352.567-342.198-357.752h-7.777c-189.246 0-347.382 152.952-349.975 342.198-5.185 93.327 31.109 184.061 95.919 251.463z" />
<glyph unicode="&#xe92b;" glyph-name="edit-3" d="M991.819 811.543l-114.441 116.275c-19.908 19.884-47.398 32.182-77.761 32.182s-57.853-12.297-77.762-32.183l0.001 0.001-567.434-565.234c-11.656-11.877-20.7-26.36-26.177-42.491l-0.233-0.791-128.012-383.302 383.669 128.012c16.745 5.871 31.079 14.89 42.942 26.435l-0.026-0.025 565.234 565.6c19.884 19.908 32.182 47.398 32.182 77.761s-12.297 57.853-32.183 77.762l0.001-0.001zM221.546 324.437l320.947 320.58 57.954-57.954-322.047-320.947zM592.744 697.102l58.321 57.954 167.993-167.993-57.954-58.321zM184.133 256.213l136.448-136.082-204.306-67.857zM388.439 156.077l-58.321 58.321 320.947 320.58 57.954-57.954zM938.634 706.272l-68.958-68.958-166.892 169.827 68.958 68.958c6.628 6.575 15.754 10.638 25.831 10.638 0.075 0 0.149 0 0.224-0.001h-0.011c0.063 0 0.138 0.001 0.212 0.001 10.077 0 19.203-4.063 25.833-10.641l-0.002 0.002 116.275-116.641c6.539-6.591 10.594-15.655 10.637-25.668v-0.008c0-0.063 0.001-0.138 0.001-0.212 0-10.077-4.063-19.203-10.641-25.833l0.002 0.002z" />
<glyph unicode="&#xe92c;" glyph-name="plus" d="M950.857 521.143h-365.714v365.714c0 40.375-32.768 73.143-73.143 73.143s-73.143-32.768-73.143-73.143v-365.714h-365.714c-40.375 0-73.143-32.768-73.143-73.143s32.768-73.143 73.143-73.143h365.714v-365.714c0-40.375 32.768-73.143 73.143-73.143s73.143 32.768 73.143 73.143v365.714h365.714c40.375 0 73.143 32.768 73.143 73.143s-32.768 73.143-73.143 73.143z" />
<glyph unicode="&#xe92d;" glyph-name="check" d="M302.080 545.28l-71.68-71.68 230.4-230.4 512 512-71.68 71.68-440.32-440.32-158.72 158.72zM921.6 448c0-225.28-184.32-409.6-409.6-409.6s-409.6 184.32-409.6 409.6c0 225.28 184.32 409.6 409.6 409.6 40.96 0 76.8-5.12 112.64-15.36l81.92 81.92c-61.44 20.48-128 35.84-194.56 35.84-281.6 0-512-230.4-512-512s230.4-512 512-512c281.6 0 512 230.4 512 512h-102.4z" />
<glyph unicode="&#xe92e;" glyph-name="delete" d="M874.667-53.333h-725.333v874.667h725.333v-874.667zM192-10.666h640v789.333h-640v-789.333zM746.667 778.667h-469.333v170.667h469.333v-170.667zM320 821.334h384v85.333h-384v-85.333zM341.333 96c-11.797 0-21.333 9.536-21.333 21.333v533.333c0 11.797 9.536 21.333 21.333 21.333s21.333-9.536 21.333-21.333v-533.333c0-11.797-9.536-21.333-21.333-21.333zM512 96c-11.797 0-21.333 9.536-21.333 21.333v533.333c0 11.797 9.536 21.333 21.333 21.333s21.333-9.536 21.333-21.333v-533.333c0-11.797-9.536-21.333-21.333-21.333zM682.667 96c-11.797 0-21.333 9.536-21.333 21.333v533.333c0 11.797 9.536 21.333 21.333 21.333s21.333-9.536 21.333-21.333v-533.333c0-11.797-9.536-21.333-21.333-21.333zM0 821.334h1024v-42.667h-1024v42.667z" />
<glyph unicode="&#xe92f;" glyph-name="cross" d="M899.107 960l-387.107-387.107-387.107 387.107-124.893-124.893 387.107-387.107-387.107-387.107 124.893-124.893 387.107 387.107 387.107-387.107 124.893 124.893-387.107 387.107 387.107 387.107z" />
<glyph unicode="&#xe930;" glyph-name="check-2" horiz-adv-x="1229" d="M391.044 175.664l-293.285 293.285-97.761-97.761 391.046-391.046 837.956 837.956-97.761 97.761-740.195-740.195z" />
<glyph unicode="&#xe931;" glyph-name="upload" horiz-adv-x="1205" d="M602.511 960l-313.224-293.924h198.776v-308.429h228.894v308.429h198.776l-313.224 293.924zM1165.072 264.752l-191.765 129.036h-118.254l204.824-157.13h-213.51c-6.12 0-11.674-3.108-14.42-7.999l-49.224-134.638h-360.472l-49.224 134.638c-2.735 4.891-8.3 7.999-14.42 7.999h-213.51l204.848 157.13h-118.278l-191.741-129.036c-28.539-17.047-45.598-56.332-37.948-87.293l33.816-185.151c7.662-30.961 41.586-56.308 75.378-56.308h982.654c33.792 0 67.717 25.347 75.39 56.308l33.792 185.151c7.686 30.961-9.397 70.246-37.936 87.293z" />
<glyph unicode="&#xe932;" glyph-name="present" d="M771.516 640c18.126 12.88 35.512 27.216 51.444 43.148 33.402 33.402 55.746 74.5 62.912 115.722 7.858 45.186-3.672 87.14-31.63 115.1-22.3 22.298-52.51 34.086-87.364 34.086-49.632 0-101.922-23.824-143.46-65.362-66.476-66.476-105.226-158.238-126.076-223.722-15.44 65.802-46.206 154.644-106.018 214.458-32.094 32.092-73.114 48.57-111.846 48.57-31.654 0-61.78-11.004-84.26-33.486-49.986-49.988-43.232-137.786 15.086-196.104 20.792-20.792 45.098-38.062 70.72-52.412h-217.024v-256h64v-448h768v448.002h64v256h-188.484zM674.326 831.782c27.724 27.724 62.322 44.274 92.55 44.274 10.7 0 25.708-2.254 36.45-12.998 26.030-26.028 11.412-86.308-31.28-128.998-43.946-43.946-103.060-74.168-154.432-94.060h-50.672c18.568 57.548 52.058 136.456 107.384 191.782zM233.934 799.11c-0.702 9.12-0.050 26.248 12.196 38.494 10.244 10.244 23.788 12.396 33.348 12.396v0c21.258 0 43.468-10.016 60.932-27.48 33.872-33.872 61.766-87.772 80.668-155.876 0.51-1.84 1.008-3.67 1.496-5.486-1.816 0.486-3.646 0.984-5.486 1.496-68.104 18.904-122.002 46.798-155.874 80.67-15.828 15.826-25.77 36.16-27.28 55.786zM448 0h-256v416h256v-416zM448 448h-320v128h320v-128zM832 0h-256v416h256v-416zM896 448h-320v128h320v-128z" />
<glyph unicode="&#xe933;" glyph-name="lock" horiz-adv-x="864" d="M154.663 682.666v-149.331h-63.999c-47.147 0-85.336-38.187-85.336-85.334v-426.672c0-47.145 38.19-85.329 85.336-85.329h682.667c47.145 0 85.342 38.185 85.342 85.329v426.672c0 47.147-38.196 85.334-85.342 85.334h-63.994v149.331c0 153.17-124.171 277.334-277.336 277.334s-277.336-124.162-277.336-277.334zM261.331 533.335v149.331c0 94.292 76.371 170.67 170.666 170.67s170.67-76.378 170.67-170.67v-149.331h-341.336zM346.663 298.665c0 47.145 38.187 85.331 85.334 85.331s85.331-38.187 85.331-85.331c0-30.084-15.577-56.54-39.037-71.684 0 0 8.335-50.357 17.709-109.654 0-17.7-14.293-31.993-32.002-31.993h-64.004c-17.707 0-31.997 14.293-31.997 31.993l17.709 109.654c-23.462 15.146-39.044 41.603-39.044 71.684z" />
</font>
</defs>
</svg>
